<svg width="24" height="24" viewBox="0 0 24 24" fill="none" xmlns="http://www.w3.org/2000/svg">
<g id="&#229;&#155;&#190;&#230;&#160;&#135;&#231;&#187;&#152;&#229;&#136;&#182;&#230;&#155;&#180;&#230;&#150;&#176;  8.20">
<g id="Icon/Ratio 1-1">
<path id="Icon" d="M3.50005 14.422C3.50006 16.5502 3.50006 17.6143 3.91424 18.4271C4.27856 19.1421 4.85988 19.7235 5.5749 20.0878C6.38776 20.502 7.45186 20.502 9.58005 20.502H14.42C16.5482 20.502 17.6123 20.502 18.4252 20.0878C19.1402 19.7235 19.7215 19.1421 20.0858 18.4271C20.5 17.6143 20.5 16.5502 20.5 14.422V9.58195C20.5 7.45375 20.5 6.38965 20.0858 5.57679C19.7215 4.86177 19.1402 4.28045 18.4252 3.91613C17.6123 3.50195 16.5482 3.50195 14.42 3.50195H9.58003C7.45182 3.50195 6.38771 3.50195 5.57485 3.91613C4.85983 4.28045 4.2785 4.86178 3.91419 5.5768C3.50001 6.38967 3.50002 7.45377 3.50003 9.58198L3.50005 14.422Z" stroke="#333333" stroke-width="1.8" stroke-linecap="round" stroke-linejoin="round"/>
</g>
</g>
</svg>
