<svg width="28" height="28" viewBox="0 0 28 28" fill="none" xmlns="http://www.w3.org/2000/svg">
<g id=".TabBar / Icons-Mode Options">
<g id="Type=We, State=on">
<path id="Union" fill-rule="evenodd" clip-rule="evenodd" d="M14.0001 4C18.6944 4.00014 22.5001 7.80567 22.5001 12.5C22.5001 15.773 20.6489 18.6119 17.9376 20.0322C20.1225 20.6362 22.1041 21.7297 23.756 23.1875C24.0665 23.4616 24.0964 23.9355 23.8224 24.2461C23.5483 24.5566 23.0743 24.5865 22.7638 24.3125C20.4277 22.2506 17.3608 21.0001 14.0001 21C10.6393 21 7.57165 22.2505 5.23546 24.3125C4.92491 24.5863 4.45089 24.5566 4.17687 24.2461C3.90304 23.9356 3.93287 23.4615 4.24328 23.1875C5.89499 21.7297 7.87683 20.6362 10.0616 20.0322C7.35056 18.6118 5.50011 15.7729 5.50011 12.5C5.50011 7.80558 9.30569 4 14.0001 4ZM16.6251 15.1094C16.3963 14.7645 15.9312 14.6701 15.5861 14.8984C15.1319 15.1994 14.5873 15.3749 14.0001 15.375C13.4129 15.375 12.8683 15.1994 12.4142 14.8984C12.0691 14.6699 11.604 14.7645 11.3751 15.1094C11.1464 15.4546 11.2409 15.9196 11.5861 16.1484C12.2783 16.6071 13.1092 16.875 14.0001 16.875C14.891 16.8749 15.722 16.6072 16.4142 16.1484C16.7591 15.9196 16.8536 15.4545 16.6251 15.1094Z" fill="#333333"/>
</g>
</g>
</svg>
