<svg width="24" height="24" viewBox="0 0 24 24" fill="none" xmlns="http://www.w3.org/2000/svg">
<g id="Icon/OpenFlashlight">
<path id="Outlined" fill-rule="evenodd" clip-rule="evenodd" d="M16.3995 1.375C16.7357 1.375 17.0484 1.37429 17.3087 1.39551C17.5467 1.41496 17.8084 1.4561 18.0704 1.56836L18.1827 1.6211L18.3379 1.70899C18.6919 1.92615 18.9804 2.23735 19.17 2.60938C19.3224 2.90861 19.3733 3.21045 19.3956 3.48243C19.4168 3.74275 19.4161 4.05519 19.4161 4.3916V5.9502C19.4161 6.45628 19.4207 6.84151 19.3467 7.21973C19.2849 7.53584 19.1823 7.84285 19.042 8.13282C18.8743 8.47966 18.6396 8.78562 18.336 9.19043L17.9327 9.72754C17.3658 10.4834 17.1648 10.7586 17.0235 11.0508C16.8895 11.3279 16.7915 11.6217 16.7325 11.9238C16.6703 12.2423 16.6661 12.583 16.6661 13.5273V19.6084C16.6661 19.9448 16.6668 20.2573 16.6456 20.5176C16.6233 20.7896 16.5724 21.0914 16.42 21.3906C16.2033 21.8158 15.8578 22.1622 15.4327 22.3789C15.1335 22.5313 14.8306 22.5823 14.5587 22.6045C14.2984 22.6257 13.9857 22.625 13.6495 22.625H10.3497C10.0133 22.625 9.70075 22.6258 9.44049 22.6045C9.1686 22.5823 8.86655 22.5313 8.56744 22.3789C8.1422 22.1622 7.79584 21.8159 7.57916 21.3906C7.42681 21.0915 7.37579 20.7895 7.35357 20.5176C7.33231 20.2573 7.33306 19.9448 7.33306 19.6084V13.5273C7.33306 12.5829 7.32889 12.2423 7.26666 11.9238C7.20759 11.6217 7.10967 11.3279 6.97564 11.0508C6.83431 10.7586 6.63325 10.4833 6.06646 9.72754L5.66314 9.19043C5.35951 8.7856 5.12487 8.47971 4.95709 8.13282C4.81687 7.84285 4.71421 7.53583 4.6524 7.21973C4.57848 6.84153 4.58306 6.45626 4.58306 5.9502V4.3916C4.58306 4.0552 4.58231 3.74274 4.60357 3.48243C4.62579 3.21051 4.6768 2.90855 4.82916 2.60938L4.91705 2.45313C5.13419 2.09931 5.44552 1.81064 5.81744 1.6211L5.92974 1.56836C6.19155 1.45625 6.45262 1.41496 6.69049 1.39551C6.95075 1.37425 7.26334 1.375 7.59967 1.375H16.3995ZM12.0001 9C11.4479 9.00013 11.0001 9.4478 11.0001 10V14C11.0001 14.5522 11.4479 14.9999 12.0001 15C12.5523 15 13.0001 14.5523 13.0001 14V10C13 9.44773 12.5523 9 12.0001 9Z" fill="#0D0D0D"/>
</g>
</svg>
