<svg width="36" height="36" viewBox="0 0 36 36" fill="none" xmlns="http://www.w3.org/2000/svg">
<g id=".Agent Input/PrimaryButton">

<g id="Type=Send">
<rect width="36" height="36" rx="18" fill="#0D0D0D"/>
<g id="icon">
<path id="Union" fill-rule="evenodd" clip-rule="evenodd" d="M17.0468 10.3914C17.5745 9.87021 18.4233 9.87034 18.9511 10.3914L24.7011 16.0476C25.0946 16.4349 25.0999 17.068 24.7128 17.4617C24.3256 17.8552 23.6924 17.8604 23.2987 17.4734L18.9989 13.2429V24.9998C18.9989 25.552 18.5512 25.9997 17.9989 25.9998C17.4468 25.9996 16.9989 25.552 16.9989 24.9998V13.2429L12.7011 17.4724C12.3075 17.8598 11.6744 17.8553 11.287 17.4617C10.8998 17.068 10.9052 16.435 11.2987 16.0476L17.0468 10.3904V10.3914Z" fill="white"/>
</g>
</g>
</g>
</svg>
